# xmcd
#
# Track frame offsets:
#	182
#	14002
#	23230
#	35520
#	48500
#	62820
#	73450
#	84687
#	98065
#	114807
#	127377
#	144340
#	180320
#	195430
#	205447
#	227667
#
# Disc length: 3157
#
# Revision: 1
# Processed by: cddbd v1.5.1PL0 Copyright (c) Steve Scherf et al.
# Submitted via: EasyCDDAExtractor 4.6.0.1
# Normalized: r0:TDELIM( - )
#
DISCID=e60c5310
DTITLE=Various Artist - I Love Bar-B-Q
DYEAR=1999
DGENRE=R&B
TTITLE0=I Love Bar-B-Q - The Guy Brothers and Orchestra
TTITLE1=Riffin' At The Bar-B-Q - King Cole's Swingsters
TTITLE2=Barbecued Ribs - The 3 Riffs
TTITLE3=The House Of Blue Lights - Freddie Slack with Rhythm Section and Ella Mae Morse
TTITLE4=Pork Chops - The Dorsets
TTITLE5=Neck Bones and  Hot Sauce (Part 1) - L. Anderson and The Tarnadoes
TTITLE6=Bar-B-Q - Wendy Rene
TTITLE7=Hot Barbeque - Brother Jack McDuff
TTITLE8=TV Barbecue - Rotondi
TTITLE9=Barbecue Any Old Time - Blind Boy Fuller #2 (Brownie McGhee)
TTITLE10=Beale Street Bar-B-Q - The Memphis Boys
TTITLE11=Bar-B-Que Man - Sonny Stitt
TTITLE12=Barbeque Blues - John Hammond
TTITLE13=Bar-B-Q Sauce - Sam Price
TTITLE14=Barbeque Bess - Golden Age Jazz Band
TTITLE15=Bar-B-Cutie - Evan Johns and The H-Bombs
EXTD=Rhino Records Compilation
EXTT0=
EXTT1=
EXTT2=
EXTT3=
EXTT4=
EXTT5=
EXTT6=
EXTT7=
EXTT8=
EXTT9=
EXTT10=
EXTT11=
EXTT12=
EXTT13=
EXTT14=
EXTT15=
PLAYORDER=
